<svg width="32" height="32" viewBox="0 0 32 32" fill="none" xmlns="http://www.w3.org/2000/svg">
<path fill-rule="evenodd" clip-rule="evenodd" d="M0 31.3596H31.3596V-3.05176e-05H0V31.3596Z" fill="#229E45"/>
<path fill-rule="evenodd" clip-rule="evenodd" d="M16.0109 6.52915L30.086 15.6675L15.9251 24.8304L1.79492 15.643L16.0109 6.52915Z" fill="#F8E509"/>
<path fill-rule="evenodd" clip-rule="evenodd" d="M22.1413 15.6798C22.1661 14.8823 22.0303 14.0879 21.742 13.344C21.4537 12.6 21.0188 11.9215 20.4631 11.349C19.9075 10.7764 19.2424 10.3213 18.5074 10.0108C17.7724 9.70037 16.9825 9.5408 16.1846 9.54162C15.3867 9.54244 14.5972 9.70364 13.8628 10.0156C13.1285 10.3276 12.4643 10.784 11.9098 11.3578C11.3553 11.9315 10.9218 12.6108 10.6351 13.3554C10.3483 14.1 10.2142 14.8946 10.2406 15.692C10.2917 17.2371 10.9418 18.7017 12.0534 19.776C13.1651 20.8503 14.651 21.4501 16.1969 21.4485C17.7428 21.4469 19.2274 20.844 20.3368 19.7674C21.4462 18.6908 22.0933 17.2249 22.1413 15.6798Z" fill="#2B49A3"/>
<path fill-rule="evenodd" clip-rule="evenodd" d="M14.2279 12.1151L14.0442 12.2253L13.8543 12.1273L13.8972 12.3417L13.7502 12.4948L13.9584 12.5193L14.0564 12.7153L14.1483 12.5132L14.3565 12.4764L14.1973 12.3294M18.2214 11.1044L18.0376 11.2147L17.8416 11.1167L17.8845 11.3311L17.7375 11.4842L17.9519 11.5087L18.0499 11.7047L18.1356 11.5026L18.3439 11.4658L18.1907 11.3188M16.5003 12.7214L16.341 12.8133L16.1756 12.7337L16.2124 12.9174L16.0899 13.0522L16.2675 13.0705L16.3533 13.2359L16.4268 13.0644L16.6105 13.0338L16.4758 12.9113M20.5305 13.3033L20.3712 13.3952L20.212 13.3155L20.2487 13.4932L20.1262 13.6218L20.3038 13.6463L20.3835 13.8055L20.4631 13.6402L20.6407 13.6095L20.506 13.487M16.4268 14.5099L16.243 14.6202L16.0531 14.5222L16.096 14.7365L15.949 14.8897L16.1573 14.9142L16.2553 15.104L16.3471 14.908L16.5554 14.8713L16.3961 14.7243M11.5146 16.3535L11.3308 16.4638L11.1471 16.3658L11.1838 16.5801L11.0368 16.7333L11.2512 16.7578L11.3492 16.9538L11.4349 16.7516L11.6432 16.7149L11.4901 16.5679M12.1087 13.9035L11.9249 14.0077L11.7351 13.9158L11.7779 14.124L11.6309 14.2833L11.8392 14.3078L11.9372 14.4915L12.0291 14.3017L12.2373 14.2588L12.0781 14.1179M18.2397 17.26L18.0805 17.3519L17.909 17.2722L17.9457 17.456L17.8233 17.5969L18.007 17.6152L18.0927 17.7867L18.1724 17.6091L18.3561 17.5785L18.2152 17.4499M17.909 15.6614L17.762 15.741L17.6334 15.6798L17.6579 15.8268L17.5599 15.9309L17.7069 15.9493L17.7743 16.084L17.8355 15.9431L17.9825 15.9186L17.8722 15.8206M11.2328 13.4625L11.1103 13.536L10.9817 13.4748L11.0062 13.6157L10.9082 13.7198L11.0552 13.732L11.1165 13.8545L11.1777 13.732L11.3186 13.7014L11.2144 13.6034M20.5611 12.899L20.457 12.948L20.3528 12.9052L20.3773 13.0093L20.2977 13.0889L20.4141 13.1012L20.4692 13.193L20.5121 13.095L20.6285 13.0767L20.5427 13.0032" fill="#FFFFEF"/>
<path fill-rule="evenodd" clip-rule="evenodd" d="M11.2397 13.4564L11.1172 13.5299L10.9885 13.4686L11.0192 13.6095L10.915 13.7136L11.0559 13.7259L11.1233 13.8484L11.1845 13.7259L11.3254 13.6953L11.2213 13.5973" fill="#FFFFEF"/>
<path fill-rule="evenodd" clip-rule="evenodd" d="M11.2397 13.4564L11.1172 13.5299L10.9885 13.4687L11.0192 13.6096L10.915 13.7137L11.0559 13.7259L11.1233 13.8484L11.1845 13.7259L11.3254 13.6953L11.2213 13.5973M13.1935 13.4564L13.071 13.5299L12.9485 13.4687L12.973 13.6096L12.875 13.7137L13.0159 13.7259L13.0771 13.8546L13.1384 13.7259L13.2793 13.6953L13.1751 13.5973M12.9485 12.8011L12.826 12.8746L12.7035 12.8133L12.728 12.9542L12.63 13.0583L12.7709 13.0767L12.8321 13.1992L12.8934 13.0767L13.0343 13.0461L12.9301 12.9481M17.0155 13.9893L16.893 14.0628L16.7643 14.0016L16.7888 14.1424L16.6909 14.2466L16.8317 14.2588L16.8991 14.3874L16.9603 14.2588L17.0951 14.2343L16.991 14.1363M15.8211 13.9893L15.6986 14.0628L15.57 14.0016L15.6006 14.1424L15.5026 14.2466L15.6435 14.2588L15.7047 14.3874L15.766 14.2588L15.9069 14.2343L15.8027 14.1363M12.5871 14.4058L12.5136 14.4487L12.434 14.4119L12.4463 14.5038L12.385 14.565L12.4769 14.5773L12.5198 14.6569L12.5504 14.5712L12.6423 14.5589L12.581 14.4977M20.4087 12.3723L20.2862 12.4397L20.1576 12.3784L20.1882 12.5193L20.0902 12.6234L20.2311 12.6418L20.2923 12.7643L20.3536 12.6418L20.4944 12.6112L20.3903 12.5132M19.4103 12.2437L19.3123 12.3049L19.2082 12.2437L19.2327 12.3662L19.1469 12.4519L19.2694 12.4642L19.3184 12.5683L19.3674 12.4642L19.4899 12.4397L19.3981 12.3601M19.8881 12.2498L19.7901 12.3111L19.6921 12.256L19.7104 12.3662L19.6369 12.4458L19.7472 12.4581L19.7962 12.5561L19.8391 12.4581L19.9493 12.4397L19.8697 12.3601M21.2294 13.4258L21.1376 13.4809L21.0396 13.4319L21.0641 13.5361L20.9906 13.6157L21.0947 13.6279L21.1437 13.7198L21.1866 13.6218L21.2907 13.6034L21.211 13.5299M19.4164 11.5822L19.2939 11.6496L19.1714 11.5883L19.2021 11.7231L19.1041 11.815L19.2388 11.8333L19.3062 11.9497L19.3674 11.8272L19.4961 11.8027L19.3981 11.717M19.4226 11.0493L19.3123 11.1106L19.2021 11.0555L19.2266 11.1902L19.1408 11.2821L19.2633 11.3005L19.3246 11.4168L19.3736 11.2943L19.4961 11.2698L19.4042 11.1841M18.5161 12.2498L18.4242 12.3049L18.3262 12.256L18.3507 12.3662L18.2772 12.4397L18.3813 12.4519L18.4303 12.5499L18.4732 12.4519L18.5773 12.4336L18.4977 12.3601M17.6708 12.2498L17.579 12.3049L17.481 12.256L17.5055 12.3662L17.432 12.4397L17.5361 12.4519L17.5851 12.5499L17.628 12.4519L17.7321 12.4336L17.6586 12.3601M16.2315 13.5116L16.1396 13.5667L16.0416 13.5177L16.0661 13.6218L15.9926 13.7014L16.0967 13.7137L16.1457 13.8056L16.1886 13.7076L16.2927 13.6892L16.2131 13.6218M16.3907 10.9575L16.3111 11.0003L16.2315 10.9575L16.2499 11.0493L16.1886 11.1106L16.2744 11.129L16.3172 11.2086L16.354 11.1228L16.4459 11.1106L16.3785 11.0493M14.2225 15.0918L14.0388 15.1959L13.8489 15.104L13.8918 15.3123L13.7448 15.4715L13.953 15.496L14.051 15.6859L14.1429 15.4899L14.3511 15.4532L14.1919 15.3062" fill="#FFFFEF"/>
<path fill-rule="evenodd" clip-rule="evenodd" d="M21.7494 13.5361C21.8646 13.8364 21.9547 14.1458 22.0189 14.461C18.8584 17.2417 15.3304 18.6688 10.8715 18.3748C10.7117 18.0627 10.5805 17.7367 10.4795 17.401C12.5251 17.6075 14.5912 17.3697 16.5363 16.7037C18.4814 16.0377 20.2597 14.9593 21.7494 13.5423V13.5361Z" fill="white"/>
<path d="M20.3286 15.1041L20.4388 15.0428C20.4216 15.0087 20.4173 14.9696 20.4266 14.9326C20.4327 14.9081 20.4572 14.8774 20.4878 14.8591C20.5246 14.8346 20.5552 14.8223 20.5858 14.8223C20.6103 14.8223 20.6348 14.8407 20.6471 14.8591C20.6532 14.8713 20.6593 14.8836 20.6532 14.9019L20.6348 14.9509L20.5613 15.0306C20.5223 15.0703 20.4929 15.1185 20.4756 15.1714C20.4648 15.2113 20.4689 15.2536 20.4869 15.2908C20.5049 15.3279 20.5356 15.3573 20.5736 15.3735C20.6062 15.388 20.6425 15.3923 20.6777 15.3858C20.7219 15.3762 20.7636 15.3574 20.8002 15.3307C20.8533 15.2934 20.8955 15.2426 20.9227 15.1837C20.9301 15.1566 20.9312 15.1281 20.9259 15.1005C20.9206 15.0729 20.909 15.0469 20.8921 15.0244L20.7818 15.0918C20.7941 15.1224 20.8002 15.1531 20.7941 15.1776C20.7879 15.1959 20.7634 15.2204 20.7328 15.2388C20.7022 15.2633 20.6716 15.2694 20.6471 15.2694C20.64 15.2692 20.633 15.2674 20.6267 15.2643C20.6203 15.2611 20.6147 15.2566 20.6103 15.2511C20.6061 15.2449 20.6033 15.2378 20.6023 15.2303C20.6012 15.2229 20.6019 15.2153 20.6042 15.2082C20.6042 15.1837 20.6348 15.1469 20.6777 15.1041L20.7696 14.9816C20.7863 14.9511 20.794 14.9165 20.7918 14.8818C20.7896 14.8471 20.7777 14.8137 20.7573 14.7856C20.7359 14.7552 20.7061 14.7318 20.6716 14.7182C20.6351 14.7015 20.5943 14.6972 20.5552 14.7059C20.5087 14.7178 20.465 14.7386 20.4266 14.7672C20.3687 14.8019 20.3252 14.8562 20.3041 14.9203C20.2857 14.9754 20.2918 15.0367 20.3286 15.1041ZM19.7896 15.4532L19.9121 15.3919C19.8977 15.3614 19.8934 15.3271 19.8998 15.2939C19.9059 15.2633 19.9304 15.2327 19.9611 15.2143C19.9978 15.1898 20.0284 15.1837 20.0591 15.1898C20.0836 15.1898 20.1081 15.2021 20.1203 15.2266C20.1261 15.2379 20.1283 15.2507 20.1264 15.2633C20.1264 15.2817 20.1203 15.2939 20.1019 15.3123L20.0284 15.3919C19.9881 15.4294 19.9567 15.4754 19.9366 15.5267C19.9284 15.551 19.9259 15.5768 19.9291 15.6023C19.9322 15.6277 19.9411 15.6521 19.9549 15.6737C19.9731 15.7006 19.9986 15.7219 20.0284 15.7349C20.0612 15.749 20.0974 15.7533 20.1326 15.7472C20.1693 15.7472 20.2061 15.7288 20.2551 15.6982C20.3163 15.6553 20.3653 15.6124 20.3776 15.5573C20.3867 15.5311 20.3898 15.5031 20.3867 15.4756C20.3835 15.448 20.3741 15.4215 20.3592 15.398L20.2428 15.4654C20.2612 15.496 20.2612 15.5267 20.2551 15.545C20.2428 15.5695 20.2244 15.5879 20.1938 15.6063C20.1675 15.6266 20.1351 15.6374 20.1019 15.6369C20.0943 15.636 20.087 15.6333 20.0806 15.629C20.0743 15.6248 20.069 15.6191 20.0652 15.6124C20.0619 15.6057 20.0603 15.5984 20.0603 15.591C20.0603 15.5836 20.0619 15.5762 20.0652 15.5695C20.0652 15.5512 20.0958 15.5144 20.1387 15.4654C20.1877 15.4225 20.2183 15.3797 20.2367 15.3552C20.2555 15.3246 20.265 15.2891 20.2639 15.2532C20.2628 15.2173 20.2512 15.1825 20.2306 15.1531C20.2097 15.1213 20.1801 15.0963 20.1453 15.0811C20.1105 15.0659 20.072 15.0611 20.0346 15.0673C19.9865 15.0767 19.9407 15.0954 19.8998 15.1224C19.8411 15.1549 19.7956 15.2069 19.7712 15.2694C19.7538 15.3308 19.7603 15.3965 19.7896 15.4532ZM19.1281 15.6369L19.4711 16.1882L19.8814 15.9432L19.8202 15.8452L19.5262 16.0289L19.4466 15.9064L19.7283 15.7349L19.6671 15.6369L19.3914 15.8084L19.2996 15.6553L19.6058 15.4715L19.5507 15.3735L19.1281 15.6369ZM18.1603 16.427L18.2155 16.525L18.4605 16.3903L18.3441 16.1637C18.2448 16.1416 18.1409 16.1546 18.0501 16.2004C17.9953 16.2288 17.9488 16.2711 17.9153 16.3229C17.883 16.3697 17.8659 16.4253 17.8663 16.4822C17.8663 16.5434 17.8847 16.5985 17.9153 16.6537C17.9436 16.7102 17.9857 16.7587 18.0378 16.7945C18.0807 16.8313 18.142 16.8497 18.2032 16.8497C18.2461 16.8497 18.3012 16.8313 18.3563 16.8068C18.4167 16.7784 18.4662 16.7311 18.4972 16.672C18.5217 16.623 18.5278 16.5679 18.5156 16.5067L18.387 16.5434C18.3939 16.5745 18.3895 16.6071 18.3747 16.6353C18.3584 16.6653 18.3325 16.689 18.3012 16.7027C18.2795 16.7161 18.2551 16.7247 18.2297 16.7279C18.2043 16.7311 18.1786 16.7287 18.1542 16.721C18.1113 16.7027 18.0685 16.6598 18.0317 16.5985C18.0019 16.5422 17.9911 16.4777 18.0011 16.4148C18.0133 16.3658 18.044 16.329 18.0991 16.3045L18.1787 16.28H18.2583L18.2951 16.3535L18.1603 16.427ZM13.9464 17.4683L14.0444 18.1175L14.2404 18.0869L14.2894 17.6275L14.4731 18.0563L14.663 18.0256L14.5711 17.3764L14.4486 17.3948L14.5221 17.9031L14.32 17.4132L14.1975 17.4315L14.1424 17.9644L14.0689 17.4499L13.9464 17.4683ZM13.291 17.5479L13.3523 18.1971L13.83 18.1543L13.8239 18.044L13.4686 18.0746L13.4564 17.9338L13.781 17.9031L13.7749 17.7929L13.4503 17.8235L13.4319 17.6398L13.7933 17.6091L13.781 17.4989L13.291 17.5479Z" fill="#309E3A"/>
<path d="M11.1106 17.9583C11.1106 18.0195 11.1228 18.0808 11.1412 18.1236L11.2025 18.2094L11.2943 18.2706C11.3396 18.2862 11.3875 18.2924 11.4352 18.289C11.4777 18.2893 11.5198 18.2807 11.5588 18.2639C11.5979 18.247 11.6329 18.2222 11.6618 18.191C11.7231 18.1298 11.7415 18.0501 11.7415 17.946C11.7415 17.8358 11.7047 17.7561 11.6496 17.701C11.6189 17.6713 11.5824 17.6483 11.5423 17.6335C11.5022 17.6188 11.4595 17.6125 11.4168 17.6153C11.3748 17.6142 11.333 17.6218 11.294 17.6376C11.255 17.6534 11.2197 17.6771 11.1902 17.7071C11.1599 17.7397 11.1371 17.7785 11.1234 17.8209C11.1096 17.8632 11.1053 17.908 11.1106 17.9521V17.9583Z" fill="#309E3A"/>
<path d="M11.2454 17.9582C11.2454 17.8847 11.2576 17.8235 11.2944 17.7867C11.325 17.7438 11.3679 17.7255 11.4169 17.7255C11.4419 17.725 11.4668 17.7296 11.4899 17.7391C11.5131 17.7486 11.5341 17.7627 11.5516 17.7806C11.5823 17.8173 11.6006 17.8725 11.6068 17.946C11.6068 18.0256 11.5945 18.0807 11.5578 18.1175C11.5429 18.1358 11.5243 18.1508 11.5031 18.1614C11.482 18.1719 11.4589 18.1778 11.4353 18.1787C11.374 18.1787 11.3311 18.1603 11.3005 18.1236C11.2638 18.0868 11.2454 18.0317 11.2393 17.9582H11.2454Z" fill="#F7FFFF"/>
<path d="M11.8818 17.6153L11.888 18.2706H12.1636C12.2371 18.2706 12.2861 18.2584 12.3167 18.2461C12.3473 18.2339 12.378 18.2155 12.3902 18.1849C12.4025 18.1543 12.4208 18.1236 12.4208 18.0808C12.4208 18.0318 12.4025 17.995 12.378 17.9583C12.3473 17.9276 12.3045 17.9093 12.2432 17.897C12.2738 17.8848 12.2983 17.8664 12.3167 17.848L12.3902 17.7378L12.4698 17.6153H12.3106L12.2187 17.7561C12.1963 17.7903 12.1717 17.823 12.1452 17.8541C12.135 17.865 12.1224 17.8734 12.1085 17.8786C12.0887 17.8857 12.0681 17.8898 12.0472 17.8909H12.0166V17.6153H11.8818Z" fill="#309E3A"/>
<path d="M12.0166 17.995H12.1146C12.1553 17.99 12.1964 17.99 12.2371 17.995L12.2677 18.0257C12.28 18.0379 12.2861 18.0563 12.2861 18.0747C12.2861 18.0992 12.28 18.1175 12.2677 18.1298C12.2548 18.1435 12.2374 18.1522 12.2187 18.1543H12.0227L12.0166 17.995Z" fill="white"/>
<path d="M12.6295 18.24L12.8684 18.2277C12.9099 18.2271 12.9511 18.2209 12.9909 18.2094C13.0258 18.1962 13.0572 18.1753 13.0828 18.1481C13.1114 18.1142 13.1323 18.0745 13.144 18.0317C13.1563 17.9889 13.1563 17.9399 13.1563 17.8786C13.1581 17.8317 13.1497 17.785 13.1318 17.7416C13.1138 17.6983 13.0866 17.6593 13.0521 17.6275C13.0276 17.6091 12.997 17.5907 12.9603 17.5785H12.8378L12.5928 17.5846L12.6295 18.24Z" fill="#309E3A"/>
<path d="M12.7518 18.1237L12.7334 17.6949L12.8314 17.6827H12.911L12.9661 17.7133C12.9845 17.7255 12.9906 17.7439 13.0029 17.7745L13.0213 17.897L13.0151 18.0073C13.0029 18.0379 12.9968 18.0563 12.9784 18.0685C12.9621 18.0866 12.9408 18.0994 12.9171 18.1053C12.8829 18.1125 12.848 18.1166 12.813 18.1175L12.7518 18.1237Z" fill="white"/>
<path d="M15.833 17.0702L15.9861 17.7072L16.1883 17.6582C16.2679 17.6398 16.3169 17.6214 16.3414 17.6092C16.372 17.5908 16.4026 17.5663 16.4149 17.5295C16.4333 17.4867 16.4333 17.4438 16.421 17.3948C16.4156 17.3632 16.402 17.3336 16.3816 17.3089C16.3612 17.2841 16.3346 17.2652 16.3046 17.2539C16.2836 17.2435 16.2607 17.2373 16.2373 17.2355C16.1917 17.2395 16.1466 17.2477 16.1025 17.26L16.0168 17.2784L15.9555 17.0395L15.833 17.0702Z" fill="#309E3A"/>
<path d="M16.0839 17.5663L16.041 17.3825L16.1145 17.3703C16.1635 17.358 16.2003 17.3519 16.2186 17.358C16.2356 17.3598 16.2516 17.3665 16.2647 17.3775C16.2778 17.3884 16.2874 17.4029 16.2921 17.4193L16.286 17.4867C16.2755 17.5065 16.258 17.5217 16.237 17.5295L16.1451 17.554L16.0839 17.5663Z" fill="white"/>
<path d="M16.4395 16.8864L16.6538 17.505L16.9172 17.4131C16.965 17.3997 17.0104 17.379 17.0519 17.3519C17.0764 17.3274 17.0948 17.2968 17.1071 17.26C17.1193 17.2233 17.1071 17.1926 17.0948 17.1559C17.0826 17.1069 17.0519 17.0763 17.0152 17.0579C16.9941 17.0456 16.9708 17.0377 16.9466 17.0345C16.9224 17.0314 16.8978 17.0331 16.8743 17.0395L16.9233 16.966L16.9601 16.8435L16.9907 16.6965L16.8437 16.7455L16.8008 16.9109C16.7913 16.9505 16.779 16.9894 16.7641 17.0273C16.7588 17.0412 16.7504 17.0538 16.7396 17.064C16.721 17.0775 16.7003 17.0879 16.6783 17.0946L16.6538 17.1008L16.562 16.8435L16.4395 16.8864Z" fill="#309E3A"/>
<path d="M16.6846 17.1988L16.7764 17.1682L16.8928 17.1375C16.9112 17.1375 16.9234 17.1375 16.9357 17.1498L16.9663 17.1927V17.2539C16.9585 17.2699 16.9456 17.2829 16.9296 17.2907L16.8377 17.3213L16.7397 17.358L16.6846 17.1988Z" fill="white"/>
<path d="M17.2062 16.9109C17.2217 16.9669 17.2488 17.0191 17.2858 17.064C17.3042 17.0946 17.3348 17.113 17.3654 17.1314C17.3957 17.1481 17.429 17.1585 17.4634 17.162C17.5063 17.162 17.5553 17.162 17.6043 17.1436C17.6458 17.1332 17.6848 17.1142 17.7185 17.0878C17.7523 17.0615 17.7801 17.0283 17.8003 16.9905C17.837 16.917 17.8432 16.8251 17.8064 16.7271C17.7963 16.6831 17.7775 16.6414 17.7512 16.6046C17.725 16.5679 17.6917 16.5366 17.6533 16.5127C17.6155 16.4939 17.5742 16.4831 17.5321 16.481C17.4899 16.4789 17.4478 16.4855 17.4083 16.5005C17.3667 16.5109 17.3278 16.5299 17.294 16.5563C17.2603 16.5826 17.2324 16.6158 17.2123 16.6536C17.1763 16.7352 17.1741 16.8277 17.2062 16.9109Z" fill="#309E3A"/>
<path d="M17.3341 16.8741C17.3157 16.8068 17.3157 16.7516 17.3341 16.7026C17.3586 16.6536 17.3953 16.623 17.4443 16.6046C17.4933 16.5924 17.5362 16.5985 17.5791 16.623C17.622 16.6475 17.6587 16.6965 17.6832 16.77C17.7016 16.8435 17.7016 16.8986 17.6832 16.9476C17.6729 16.9702 17.6577 16.9902 17.6386 17.0062C17.6195 17.0221 17.5971 17.0335 17.573 17.0395C17.5496 17.0471 17.5248 17.0494 17.5005 17.0462C17.4761 17.043 17.4527 17.0345 17.4321 17.0211C17.3892 16.9966 17.3586 16.9476 17.3341 16.8741Z" fill="white"/>
<path d="M18.4795 15.9983L18.7796 16.5802L19.0246 16.4577C19.0859 16.421 19.1287 16.3965 19.1471 16.372C19.1716 16.3413 19.1839 16.3107 19.19 16.2801C19.1961 16.2495 19.19 16.2066 19.1655 16.176C19.1471 16.1331 19.1165 16.1025 19.0736 16.0841C19.0307 16.0718 18.9879 16.0718 18.9327 16.0902C18.9511 16.0657 18.9634 16.0351 18.9695 16.0106L18.9879 15.882L19.0001 15.7288L18.8592 15.8023L18.8409 15.9738L18.8225 16.0963C18.8172 16.1103 18.8088 16.1229 18.798 16.1331C18.7816 16.1481 18.763 16.1605 18.7429 16.1698L18.7184 16.1821L18.5959 15.9371L18.4795 15.9983Z" fill="#309E3A"/>
<path d="M18.7676 16.2739L18.8533 16.231L18.9636 16.182C18.982 16.182 18.9942 16.182 19.0065 16.1943C19.023 16.2028 19.0365 16.2162 19.0452 16.2326C19.054 16.249 19.0575 16.2677 19.0555 16.2861C19.0489 16.3045 19.0358 16.3197 19.0187 16.329C18.9928 16.3463 18.9662 16.3627 18.9391 16.378L18.8472 16.4209L18.7676 16.2739Z" fill="white"/>
<path d="M20.8985 14.8039C20.9353 14.8652 20.972 14.9019 21.021 14.9264C21.0509 14.9463 21.0841 14.9609 21.119 14.9693C21.1514 14.9756 21.1847 14.9756 21.217 14.9693C21.2599 14.9632 21.3089 14.9448 21.3518 14.908C21.388 14.8859 21.4192 14.8566 21.4434 14.8218C21.4677 14.787 21.4844 14.7475 21.4927 14.7059C21.5015 14.6168 21.4776 14.5275 21.4253 14.4548C21.402 14.4153 21.371 14.3808 21.3342 14.3535C21.2974 14.3261 21.2555 14.3064 21.2109 14.2955C21.1694 14.2878 21.1268 14.2887 21.0857 14.2982C21.0446 14.3077 21.0059 14.3255 20.972 14.3507C20.9358 14.3728 20.9046 14.4021 20.8804 14.4369C20.8561 14.4717 20.8394 14.5112 20.8312 14.5528C20.8243 14.5966 20.8262 14.6414 20.8367 14.6845C20.8473 14.7276 20.8662 14.7682 20.8924 14.8039H20.8985Z" fill="#309E3A"/>
<path d="M21.0082 14.7366C20.9714 14.6753 20.953 14.6141 20.9592 14.5651C20.9634 14.5403 20.9726 14.5166 20.9863 14.4956C21 14.4745 21.0178 14.4564 21.0388 14.4426C21.0582 14.4291 21.0803 14.4199 21.1035 14.4157C21.1268 14.4115 21.1506 14.4123 21.1735 14.4181C21.2225 14.4303 21.2715 14.4671 21.3144 14.5344C21.3573 14.5957 21.3757 14.6508 21.3634 14.6998C21.3634 14.7488 21.3328 14.7856 21.2899 14.8223C21.247 14.859 21.198 14.859 21.149 14.8468C21.1 14.8345 21.0572 14.7978 21.0143 14.7366H21.0082Z" fill="white"/>
<path d="M15.0918 17.3336L15.1959 17.7991L15.5389 17.7194L15.5205 17.6398L15.2755 17.7011L15.251 17.5969L15.4777 17.5418L15.4593 17.4622L15.2327 17.5235L15.202 17.3948L15.4593 17.3336L15.4409 17.254L15.0918 17.3336Z" fill="#309E3A"/>
</svg>
